<?xml version="1.0" standalone="no"?>
<!DOCTYPE svg PUBLIC "-//W3C//DTD SVG 20010904//EN"
 "http://www.w3.org/TR/2001/REC-SVG-20010904/DTD/svg10.dtd">
<svg version="1.0" xmlns="http://www.w3.org/2000/svg"
 width="200.000000pt" height="89.000000pt" viewBox="0 0 200.000000 89.000000"
 preserveAspectRatio="xMidYMid meet">

<g transform="translate(0.000000,89.000000) scale(0.100000,-0.100000)"
fill="#000000" stroke="none">
<path d="M1550 637 c0 -183 3 -256 12 -265 9 -9 70 -12 215 -12 l203 0 11 24
c9 19 7 33 -10 71 -27 61 -27 115 0 149 17 21 18 26 5 26 -22 0 -46 -52 -46
-97 0 -21 9 -58 21 -82 23 -51 19 -71 -13 -71 l-23 0 3 250 c2 151 -1 250 -7
250 -5 0 -21 -20 -35 -45 l-27 -45 -124 0 -125 0 -25 50 c-14 28 -28 50 -30
50 -3 0 -5 -114 -5 -253z"/>
<path d="M115 832 c-38 -23 -93 -86 -106 -120 -29 -77 54 -139 108 -79 26 28
73 99 73 109 0 22 -24 2 -60 -52 -40 -60 -64 -72 -88 -48 -32 32 3 112 67 155
44 30 62 29 100 -3 l31 -26 -19 -32 c-50 -82 -68 -256 -33 -326 24 -50 76 -72
165 -72 157 0 203 58 186 236 -5 56 -16 96 -37 138 l-29 59 29 24 c38 32 63
31 105 -1 62 -47 92 -121 61 -152 -23 -23 -46 -12 -78 37 -34 54 -57 77 -66
68 -4 -3 14 -34 38 -69 38 -56 48 -63 80 -66 30 -3 40 1 54 22 27 42 11 92
-50 153 -69 69 -95 75 -151 34 -43 -31 -46 -31 -74 -16 -38 19 -94 19 -131 0
-28 -15 -32 -14 -71 15 -49 35 -63 37 -104 12z"/>
<path d="M880 806 c0 -14 5 -28 10 -31 35 -22 -43 -65 -90 -50 -32 10 -23 -11
23 -60 46 -47 84 -58 128 -35 10 6 19 9 19 8 0 -2 -13 -39 -30 -81 -34 -89
-36 -115 -15 -157 48 -93 270 -96 329 -5 23 35 18 89 -17 177 l-27 67 26 -9
c50 -19 76 -12 121 35 46 49 55 70 23 60 -10 -3 -37 -1 -60 6 -39 12 -40 13
-25 35 8 13 15 32 15 44 0 25 -40 27 -76 3 -22 -14 -32 -15 -70 -5 -56 15 -96
15 -145 1 -32 -10 -42 -9 -63 5 -14 9 -37 16 -51 16 -20 0 -25 -5 -25 -24z
m269 -287 c61 -13 101 -47 101 -87 0 -76 -154 -119 -257 -73 -117 53 -61 161
89 170 9 1 39 -4 67 -10z"/>
<path d="M981 447 c-13 -17 -6 -43 15 -51 25 -10 56 13 52 37 -4 26 -48 36
-67 14z"/>
<path d="M1137 453 c-14 -13 -7 -43 12 -53 36 -19 74 17 50 46 -12 15 -51 19
-62 7z"/>
<path d="M494 237 c-23 -20 -27 -31 -26 -79 0 -34 7 -66 16 -80 22 -33 60 -53
83 -43 10 5 23 8 28 7 15 -2 18 160 3 179 -14 17 -51 39 -67 39 -5 0 -22 -10
-37 -23z m79 -15 c12 -10 17 -30 17 -63 0 -58 -7 -79 -27 -79 -12 0 -13 -3 -4
-14 9 -11 9 -16 0 -22 -8 -4 -23 5 -41 25 -23 26 -28 40 -28 86 0 42 5 60 20
75 21 21 30 20 63 -8z"/>
<path d="M116 242 c-9 -15 68 -197 84 -197 8 0 27 40 46 98 20 60 28 97 21 95
-7 -2 -23 -39 -36 -81 -14 -42 -28 -77 -32 -77 -4 0 -22 39 -41 86 -20 48 -38
82 -42 76z"/>
<path d="M336 228 c-28 -42 -50 -208 -26 -193 6 3 10 19 10 35 0 50 17 80 44
80 31 0 46 -26 46 -79 0 -24 5 -41 11 -41 15 0 5 120 -14 177 -15 47 -48 56
-71 21z m48 -8 c3 -11 9 -29 12 -40 5 -17 1 -20 -30 -20 -41 0 -41 -1 -22 45
17 39 32 45 40 15z"/>
<path d="M640 152 c0 -106 7 -122 50 -122 47 0 63 21 68 88 5 67 -4 132 -18
132 -4 0 -6 -35 -4 -77 6 -91 -8 -128 -46 -128 -25 0 -25 1 -28 103 -4 131
-22 135 -22 4z"/>
<path d="M800 140 c0 -67 4 -110 10 -110 6 0 10 43 10 110 0 67 -4 110 -10
110 -6 0 -10 -43 -10 -110z"/>
<path d="M850 140 c0 -75 4 -110 11 -110 7 0 10 11 7 27 -3 16 -2 53 1 83 l6
55 37 -78 c51 -105 63 -99 63 31 0 56 -3 102 -7 102 -12 0 -21 -69 -14 -116 8
-61 -7 -55 -35 13 -26 67 -48 103 -60 103 -5 0 -9 -49 -9 -110z"/>
<path d="M1206 228 c-13 -22 -36 -132 -36 -177 0 -40 18 -12 25 40 8 54 20 65
60 55 23 -6 25 -11 25 -61 0 -30 5 -55 10 -55 22 0 3 177 -22 208 -16 19 -46
14 -62 -10z m47 5 c3 -5 8 -23 12 -40 6 -32 5 -33 -24 -33 -34 0 -38 11 -21
54 9 25 24 34 33 19z"/>
<path d="M1508 148 c4 -112 22 -164 22 -62 0 59 0 60 34 72 53 20 58 59 10 81
-14 6 -35 11 -47 11 -21 0 -22 -3 -19 -102z m63 72 l24 -20 -24 -20 c-34 -29
-41 -25 -41 20 0 45 7 49 41 20z"/>
<path d="M1643 143 l2 -108 55 -1 c54 -2 54 -2 10 5 l-45 6 -3 48 c-3 41 0 48
20 56 15 7 18 10 7 10 -19 1 -29 21 -29 56 0 21 5 24 48 28 l47 3 -57 2 -57 2
2 -107z"/>
<path d="M1803 243 l27 -4 0 -94 c0 -119 19 -140 22 -23 0 46 1 90 2 98 1 9
15 17 36 21 23 4 10 6 -40 6 -41 0 -63 -2 -47 -4z"/>
<path d="M1020 140 c0 -77 3 -100 13 -100 10 0 13 14 9 55 l-4 55 40 0 41 0 3
-52 c2 -28 8 -53 13 -55 6 -2 10 34 10 94 0 73 -3 97 -14 101 -8 3 -11 0 -7
-6 3 -5 3 -24 0 -41 -6 -28 -10 -31 -45 -31 -39 0 -39 0 -39 40 0 22 -4 40
-10 40 -6 0 -10 -40 -10 -100z"/>
</g>
</svg>
